<svg xmlns="http://www.w3.org/2000/svg" viewBox="0 0 840 1210" font-family="Helvetica, Arial, sans-serif">
  <!-- THE BURRI RULES — canonical visual. Companion to 00_THE_BURRI_RULES.md.
       Line-style law: solid=[A] MATH · long-dash=[S] MODEL · short-dash=[I] INTERP · dotted=[C] CONJ/proposed.
       ⚑ = flagged contradiction (adjudicated, receipt 104) · ∅ = stated absence. -->
  <rect width="840" height="1210" fill="#0a0c10"/>

  <!-- title -->
  <text x="40" y="52" fill="#eef1f5" font-size="30" font-weight="bold" font-family="Georgia, serif">THE BURRI RULES</text>
  <text x="40" y="76" fill="#8a93a3" font-size="12.5">the dimensional derivation grammar — tier-honest · [D] staged 2026-07-10 · receipt 104 · map ≠ territory</text>

  <!-- ===== TITAN FRAME (trans-dimensional; no per-rung assignment exists ∅) ===== -->
  <text x="155" y="98" fill="#8a93a3" font-size="11">THE TITANS {0, 1, ∞} — boundary-frames of the whole field · define the operations, are not operands</text>
  <rect x="150" y="118" width="540" height="844" rx="26" fill="none" stroke="#e8b34c" stroke-width="1.6" stroke-dasharray="9 5"/>
  <!-- ∞ / ○ top -->
  <circle cx="420" cy="118" r="15" fill="#0a0c10" stroke="#e8b34c" stroke-width="2"/>
  <text x="420" y="123.5" fill="#e8b34c" font-size="15" text-anchor="middle">○</text>
  <text x="443" y="110" fill="#e8b34c" font-size="12">∞ — projective completion [A math · S/I ontology]</text>
  <!-- 0 / • bottom -->
  <circle cx="420" cy="962" r="15" fill="#0a0c10" stroke="#e8b34c" stroke-width="2"/>
  <text x="420" y="967" fill="#e8b34c" font-size="15" text-anchor="middle">•</text>
  <text x="443" y="988" fill="#e8b34c" font-size="12">0 — additive identity · Bindu, κ=0 [A · S/I]</text>
  <!-- 1 / ⊙ left mid -->
  <circle cx="150" cy="540" r="15" fill="#0a0c10" stroke="#e8b34c" stroke-width="2"/>
  <text x="150" y="545" fill="#e8b34c" font-size="14" text-anchor="middle">⊙</text>
  <text x="128" y="512" fill="#e8b34c" font-size="12.5" text-anchor="end">1 — finity</text>
  <text x="128" y="528" fill="#8a93a3" font-size="10.5" text-anchor="end">self-dual midpoint [A]</text>
  <text x="128" y="543" fill="#8a93a3" font-size="10.5" text-anchor="end">naming [S/I]</text>
  <text x="160" y="1002" fill="#8a93a3" font-size="10.5">∅ no per-Titan-per-dimension assignment exists in canon —</text>
  <text x="160" y="1015" fill="#8a93a3" font-size="10.5">the frame holds the whole ladder, not the rungs</text>
  <!-- [CONJ] generative bridge (this map's only synthesis) -->
  <line x1="167" y1="540" x2="374" y2="540" stroke="#8a93a3" stroke-width="1.2" stroke-dasharray="2 5"/>
  <text x="238" y="525" fill="#8a93a3" font-size="10">‹CONJ› generative bridge —</text>
  <text x="238" y="558" fill="#8a93a3" font-size="10">map's proposal, not source ∅</text>

  <!-- ===== LADDER D0 (bottom) → D6 (top) ===== -->
  <line x1="400" y1="880" x2="400" y2="198" stroke="#3a4150" stroke-width="1"/>

  <!-- μ crossings (long-dash = MODEL/analogy) · node ys: D0 880 · D1 766 · D2 652 · D3 540 · D4 426 · D5 312 · D6 198 -->
  <g stroke="#6b7383" stroke-width="1.8" stroke-dasharray="10 6" fill="none">
    <path d="M400 854 L400 792"/><path d="M400 740 L400 678"/><path d="M400 626 L400 566"/>
    <path d="M400 514 L400 452"/><path d="M400 286 L400 224"/>
  </g>
  <path d="M400 400 L400 340" stroke="#4fd1a5" stroke-width="3" stroke-dasharray="10 6" fill="none"/>
  <path d="M394 346 L400 334 L406 346 Z" fill="#4fd1a5"/>
  <g fill="#6b7383" font-size="11" text-anchor="end">
    <text x="384" y="826">μ₀ ∅ underived</text>
    <text x="384" y="712">μ₁ [MODEL]</text>
    <text x="384" y="599">μ₂ [MODEL]</text>
    <text x="384" y="486">μ₃ [MODEL]</text>
    <text x="384" y="255">μ₅ [MODEL] → closure</text>
  </g>
  <text x="384" y="360" fill="#4fd1a5" font-size="11.5" text-anchor="end" font-weight="bold">μ₄ — the witness limit</text>
  <text x="384" y="375" fill="#4fd1a5" font-size="10.5" text-anchor="end">potential→actual (A.2/A.3)</text>
  <text x="384" y="389" fill="#8a93a3" font-size="9.5" text-anchor="end">analogy — no threshold ∅</text>

  <!-- nodes + rung labels (annotation budget: x 436..640) -->
  <g>
    <circle cx="400" cy="880" r="24" fill="#12151c" stroke="#eef1f5" stroke-width="1.6"/>
    <text x="400" y="885" fill="#eef1f5" font-size="13" text-anchor="middle" font-weight="bold">D0</text>
    <text x="436" y="877" fill="#eef1f5" font-size="12.5">Distinction — Point / Bindu</text>
    <text x="436" y="892" fill="#8a93a3" font-size="10.5">[S] scaffold · κ=0 reading [S/I]</text>

    <circle cx="400" cy="766" r="24" fill="#12151c" stroke="#eef1f5" stroke-width="1.6"/>
    <text x="400" y="771" fill="#eef1f5" font-size="13" text-anchor="middle" font-weight="bold">D1</text>
    <text x="436" y="763" fill="#eef1f5" font-size="12.5">Extension — the Line</text>
    <text x="436" y="778" fill="#8a93a3" font-size="10.5">glyph-shadow generator [S/C]</text>

    <circle cx="400" cy="652" r="24" fill="#12151c" stroke="#eef1f5" stroke-width="1.6"/>
    <text x="400" y="657" fill="#eef1f5" font-size="13" text-anchor="middle" font-weight="bold">D2</text>
    <text x="436" y="649" fill="#eef1f5" font-size="12.5">Configuration — the Plane</text>
    <text x="436" y="664" fill="#e05a6d" font-size="10.5">⚑ time-entry: D2 [I] vs D4 (A.7)</text>

    <circle cx="400" cy="540" r="24" fill="#12151c" stroke="#eef1f5" stroke-width="1.6"/>
    <text x="400" y="545" fill="#eef1f5" font-size="13" text-anchor="middle" font-weight="bold">D3</text>
    <text x="436" y="537" fill="#eef1f5" font-size="12.5">Volume — Space</text>
    <text x="436" y="552" fill="#8a93a3" font-size="10.5">interiority, containment [S]</text>

    <circle cx="400" cy="426" r="24" fill="#12151c" stroke="#eef1f5" stroke-width="1.6"/>
    <text x="400" y="431" fill="#eef1f5" font-size="13" text-anchor="middle" font-weight="bold">D4</text>
    <text x="436" y="417" fill="#eef1f5" font-size="12.5">Causality — time's arrow</text>
    <text x="436" y="432" fill="#eef1f5" font-size="10.5">POTENTIAL — pre-collapse register</text>
    <text x="436" y="446" fill="#8a93a3" font-size="10.5">torus hole · vertex · Witness [S]</text>

    <circle cx="400" cy="312" r="24" fill="#12151c" stroke="#4fd1a5" stroke-width="2"/>
    <text x="400" y="317" fill="#eef1f5" font-size="13" text-anchor="middle" font-weight="bold">D5</text>
    <text x="436" y="300" fill="#eef1f5" font-size="12.5">Agency — one ACTUAL enactment</text>
    <text x="436" y="315" fill="#8a93a3" font-size="10.5">torus surface · φ-ν plane · Agent</text>
    <text x="436" y="329" fill="#8a93a3" font-size="10.5">F5 [C/I] · Egregorotype [C #106]</text>

    <circle cx="400" cy="198" r="24" fill="#12151c" stroke="#eef1f5" stroke-width="1.6"/>
    <text x="400" y="203" fill="#eef1f5" font-size="13" text-anchor="middle" font-weight="bold">D6</text>
    <text x="436" y="195" fill="#eef1f5" font-size="12.5">Closure — description exhausts</text>
    <text x="436" y="210" fill="#8a93a3" font-size="10.5">7-count [Definitional], not derived</text>
  </g>

  <!-- ===== loops (rails outboard of annotations) ===== -->
  <path d="M225 856 L225 222" stroke="#4fd1a5" stroke-width="2" stroke-dasharray="10 6" fill="none"/>
  <path d="M218 232 L225 216 L232 232 Z" fill="#4fd1a5"/>
  <text x="210" y="565" fill="#4fd1a5" font-size="11.5" transform="rotate(-90 210 565)" text-anchor="middle">bottom-up · strong emergence in genesis  [S MODEL]</text>

  <path d="M655 222 L655 856" stroke="#8f7ce8" stroke-width="2" stroke-dasharray="4 5" fill="none"/>
  <path d="M648 846 L655 862 L662 846 Z" fill="#8f7ce8"/>
  <text x="670" y="565" fill="#8f7ce8" font-size="11.5" transform="rotate(90 670 565)" text-anchor="middle">top-down · constraint, weak in governance  [S · test #43 pending ∅]</text>

  <!-- ===== closure / exit arc D6 → D0 ===== -->
  <path d="M430 180 C 800 150, 800 930, 436 906" stroke="#e8b34c" stroke-width="1.4" fill="none" opacity="0.85"/>
  <path d="M446 900 L432 907 L444 916 Z" fill="#e8b34c"/>
  <text x="790" y="560" fill="#e8b34c" font-size="11.5" transform="rotate(90 790 560)" text-anchor="middle">D6 ≡ D0 — [A] coordinate-degeneration + [Definitional] · not a theorem</text>
  <text x="812" y="560" fill="#8a93a3" font-size="10.5" transform="rotate(90 812 560)" text-anchor="middle">THE EXIT: Falsification Protocol = subtraction back to D0 — a map you can leave</text>

  <!-- ===== legend ===== -->
  <g transform="translate(40,1030)">
    <text x="0" y="0" fill="#eef1f5" font-size="12.5" font-weight="bold">THE LINE-STYLE LAW (Rule 0 — the four registers)</text>
    <line x1="0" y1="18" x2="52" y2="18" stroke="#eef1f5" stroke-width="2"/>
    <text x="60" y="22" fill="#8a93a3" font-size="11">solid — MATH [A]: survives a mathematician (AM–GM · area law · composition law)</text>
    <line x1="0" y1="40" x2="52" y2="40" stroke="#eef1f5" stroke-width="2" stroke-dasharray="10 6"/>
    <text x="60" y="44" fill="#8a93a3" font-size="11">long-dash — MODEL [S]: stipulated structure doing real work (frames · scaffold · saturation-as-analogy)</text>
    <line x1="0" y1="62" x2="52" y2="62" stroke="#eef1f5" stroke-width="2" stroke-dasharray="4 5"/>
    <text x="60" y="66" fill="#8a93a3" font-size="11">short-dash — INTERP [I]: translation (Bloch↔Burrisphere · perennial witnesses)</text>
    <line x1="0" y1="84" x2="52" y2="84" stroke="#eef1f5" stroke-width="2" stroke-dasharray="2 5"/>
    <text x="60" y="88" fill="#8a93a3" font-size="11">dotted — CONJ [C]: wagers (μ-formula · Born=φ·ν=1 · Egregorotype #106 · the generative bridge)</text>
    <text x="0" y="112" fill="#e05a6d" font-size="11">⚑ adjudicated contradiction (receipt 104)</text>
    <text x="250" y="112" fill="#8a93a3" font-size="11">∅ stated absence — never filled by invention</text>
    <text x="0" y="136" fill="#8a93a3" font-size="11">standing wagers, never laundered:  P = Φ×V  [C/I — unwon; GFS W1: NOT SUPPORTED]   ·   φ·ν = 1 on S²  [A — chart tautology, not a discovery]</text>
    <text x="0" y="160" fill="#e8b34c" font-size="12">⊙ = • × ○ — emblem register only, never field arithmetic · composition: Viṣṇu = Śiva ∘ Brahmā  iff |σκ| = 1  [A, accepted 2026-07-10]</text>
    <text x="0" y="172" fill="#5d6674" font-size="10" dy="8">source: 00_THE_BURRI_RULES.md · adjudication receipt 104 (2026-07-10) · workflow wf_0101b320-ad9 · status [D] staged, K2 countersign pending</text>
  </g>

  <!-- torus glyph (doc 34 [S]) — legend-right, clear of the arc -->
  <g transform="translate(762,1090)">
    <ellipse cx="0" cy="0" rx="44" ry="26" fill="none" stroke="#8a93a3" stroke-width="1.4"/>
    <ellipse cx="0" cy="0" rx="15" ry="8" fill="none" stroke="#8a93a3" stroke-width="1.2"/>
    <text x="0" y="-38" fill="#8a93a3" font-size="10.5" text-anchor="middle">the torus (doc 34 [S])</text>
    <text x="0" y="3" fill="#eef1f5" font-size="9.5" text-anchor="middle">hole = D4</text>
    <text x="0" y="42" fill="#eef1f5" font-size="9.5" text-anchor="middle">surface = D5</text>
  </g>
</svg>
